<svg preserveAspectRatio="xMidYMid meet" data-bbox="16.06 13.96 316.81 112.43" viewBox="16.06 13.96 316.81 112.43" xmlns="http://www.w3.org/2000/svg" data-type="color" role="img" aria-label="ABECE logotype">
    <g>
        <path d="m42.17 106-5.59 19.83h4.25l1.02-3.94h6.08l1 3.94h4.24L47.44 106h-5.27zm.43 12.51 2.16-8.97h.11l2.19 8.97H42.6z" fill="currentColor"></path>
        <path d="M75.05 116.7c-.31-.38-.65-.67-1.03-.87-.38-.2-.73-.33-1.05-.38v-.14c.77-.18 1.42-.64 1.95-1.38.52-.74.78-1.71.78-2.91 0-.83-.17-1.63-.51-2.4-.34-.76-.88-1.37-1.62-1.82-.58-.36-1.25-.59-2.03-.68-.77-.09-1.59-.14-2.46-.14h-6.54v19.83h6.4c.63 0 1.21-.01 1.74-.04s1.03-.1 1.49-.2c.46-.11.89-.27 1.28-.47.4-.21.78-.49 1.14-.85.67-.67 1.09-1.36 1.27-2.08.18-.72.27-1.45.27-2.19 0-.72-.1-1.36-.31-1.91-.21-.53-.47-.99-.77-1.37zm-8.27-7.65h1.97c.22 0 .48.01.79.04.31.03.6.11.88.26.28.15.51.38.7.72.19.33.28.8.28 1.39 0 .63-.08 1.12-.23 1.47-.15.35-.41.61-.77.78-.36.17-.84.28-1.43.31-.6.04-1.32.05-2.19.05v-5.02zm4.22 13c-.5.43-1.19.64-2.05.64h-2.16v-5.56c.77 0 1.51.01 2.2.03.69.02 1.19.09 1.5.21.52.22.86.56 1.03 1.05.16.49.24.97.24 1.43-.01 1.04-.26 1.77-.76 2.2z" fill="currentColor"></path>
        <path d="M162.79 115.02c.57-.92.85-2.01.85-3.27 0-1.33-.23-2.38-.69-3.15-.46-.76-1.05-1.34-1.76-1.72-.71-.39-1.5-.63-2.35-.73-.85-.1-1.69-.15-2.5-.15h-6.4v19.83h4.29v-8.1h1.46l3.75 8.1h4.73l-4.32-8.8c1.4-.42 2.37-1.09 2.94-2.01zm-3.65-2.52c-.03.26-.09.5-.19.74-.1.23-.25.45-.45.64s-.47.35-.81.47c-.16.06-.31.1-.46.12-.15.03-.34.05-.58.07-.24.02-.55.03-.93.03h-1.49v-5.48h1.49c.4 0 .72.01.98.03.26.02.48.05.66.08.18.04.35.08.51.14.43.16.76.43.97.8.21.37.32.9.32 1.58.03.25.01.52-.02.78z" fill="currentColor"></path>
        <path d="M201.76 107.54c-.67-.72-1.45-1.22-2.34-1.5-.89-.28-1.85-.42-2.88-.42-.94 0-1.84.15-2.71.44-.88.29-1.63.77-2.26 1.46a5.82 5.82 0 0 0-1.38 2.54c-.24.94-.35 1.92-.35 2.94v5.32c0 .43.03 1.03.09 1.8.07.77.2 1.5.42 2.2.25.84.62 1.53 1.11 2.05.49.52 1.02.93 1.61 1.23.58.3 1.18.5 1.78.61.6.11 1.15.16 1.64.16.32 0 .7-.02 1.13-.05.44-.03.89-.12 1.37-.26.47-.14.96-.34 1.44-.59.49-.26.94-.62 1.35-1.07.63-.68 1.07-1.49 1.33-2.41.25-.93.38-2.1.38-3.5v-4.81c0-1.6-.15-2.87-.45-3.82-.29-.96-.72-1.73-1.28-2.32zm-2.78 11.68c0 .34-.01.72-.04 1.13-.03.42-.12.8-.26 1.16a2.1 2.1 0 0 1-.69.9c-.31.24-.77.36-1.37.36-.49 0-.88-.09-1.19-.26-.31-.18-.55-.43-.72-.74a3.35 3.35 0 0 1-.35-1.12c-.06-.43-.09-.91-.09-1.43v-6.87c0-.2.01-.47.04-.81.03-.34.11-.68.25-1.01.14-.33.38-.62.72-.87.33-.24.8-.37 1.39-.37.57 0 1.02.09 1.32.28.31.19.53.43.68.73.14.3.23.63.26.99s.04.71.04 1.05v6.88z" fill="currentColor"></path>
        <path d="M255.77 115.02c.57-.92.85-2.01.85-3.27 0-1.33-.23-2.38-.69-3.15-.46-.76-1.05-1.34-1.76-1.72-.71-.39-1.49-.63-2.35-.73-.86-.1-1.69-.15-2.5-.15h-6.4v19.83h4.29v-8.1h1.45l3.76 8.1h4.73l-4.32-8.8c1.39-.42 2.37-1.09 2.94-2.01zm-3.64-2.52c-.03.26-.09.5-.19.74-.1.23-.25.45-.45.64s-.47.35-.81.47c-.16.06-.32.1-.46.12-.14.03-.34.05-.58.07-.24.02-.55.03-.93.03h-1.48v-5.48h1.48c.4 0 .73.01.99.03.26.02.48.05.66.08.18.04.35.08.52.14.43.16.76.43.97.8.22.37.33.9.33 1.58-.01.25-.03.52-.05.78z" fill="currentColor"></path>
        <path d="m264.69 106-5.59 19.83h4.24l1.03-3.94h6.08l1 3.94h4.24L269.96 106h-5.27zm.43 12.51 2.16-8.97h.11l2.18 8.97h-4.45z" fill="currentColor"></path>
        <path d="M16.08 75.62h25.95l3.03-8.13h26.39l3.14 8.13h26.39L72.02 13.97H45.06L16.08 75.62zm50.77-20.98H50.11l8.2-22.09 8.54 22.09z" fill="currentColor"></path>
        <path d="M163.01 62.43c0-4.74-3.39-8.81-9.68-10.03 3.71-1.76 7.58-5.05 7.58-9.54 0-8.69-10.41-11-23.48-11h-27.75v43.76H138c15.08 0 25.01-3.4 25.01-13.19zm-19.85-16.89c0 2.55-2.75 3.83-6.54 3.83h-7.91v-7.3h6.69c4.05 0 7.76.06 7.76 3.47zm-14.44 19.87v-8.09h6.05c6.05 0 10.49.24 10.49 4.07 0 3.28-3.55 4.01-8.23 4.01h-8.31z" fill="currentColor"></path>
        <path fill="currentColor" d="M289.99 75.62h42.87V65.41h-23.83v-6.87h23.83V48.33h-23.83v-6.26h23.84V31.86h-42.88v43.76z"></path>
        <path fill="currentColor" d="M171.35 75.62h42.87V65.41H190.4v-6.87h23.83V48.33H190.4v-6.26h23.83V31.86h-42.88v43.76z"></path>
        <path d="M222.73 53.72c0 14.22 11.62 23.09 30.81 23.09 15.33 0 26.06-6.81 27.76-18.11h-18.32c-.73 4.2-3.63 7.42-9.76 7.42-9.69 0-11.46-5.78-11.46-11.92 0-8.45 4.04-12.76 10.73-12.76 5.97 0 9.76 2.61 10.33 7.17h18.07c-1.54-11.25-11.46-17.87-29.21-17.87-16.21 0-28.95 8.82-28.95 22.98z" fill="currentColor"></path>
        <path fill="currentColor" d="m332.86 22.65.01-8.69H80.68l4.13 8.69h248.05z"></path>
        <path fill="currentColor" d="M332.86 84.3v8.69H16.06V84.3h316.8z"></path>
        <path fill="currentColor" d="M114.28 109.62h5.05v16.21h4.54v-16.21h4.94V106h-14.53v3.62z"></path>
        <path fill="currentColor" d="M96.44 109.62h5.05v16.21h4.54v-16.21h4.94V106H96.44v3.62z"></path>
        <path fill="currentColor" d="M83.82 117.46h6.13v-3.63h-6.19v-4.21h9V106H79.44v19.83h13.94v-3.67h-9.56v-4.7z"></path>
        <path fill="currentColor" d="M136.62 117.46h6.13v-3.63h-6.19v-4.21h9V106h-13.32v19.83h13.94v-3.67h-9.56v-4.7z"></path>
        <path fill="currentColor" d="M229.46 117.46h6.14v-3.63h-6.19v-4.21h9V106h-13.32v19.83h13.94v-3.67h-9.57v-4.7z"></path>
        <path d="M281.87 111.3c.04-.36.14-.7.3-1.02.16-.31.4-.58.72-.8.32-.22.77-.32 1.35-.32.76 0 1.35.21 1.77.62.42.41.65 1.06.69 1.95h4.32c0-.96-.16-1.81-.47-2.57-.32-.76-.76-1.4-1.33-1.93a5.81 5.81 0 0 0-2.04-1.22c-.79-.28-1.66-.42-2.6-.42-.97 0-1.9.09-2.77.27-.88.18-1.69.61-2.45 1.3-.53.47-.92.97-1.19 1.51-.27.54-.47 1.08-.6 1.62s-.21 1.07-.23 1.6c-.02.52-.03.99-.03 1.43v5.38c0 1.24.09 2.3.27 3.17.18.86.54 1.63 1.08 2.32.65.81 1.41 1.38 2.3 1.71.88.32 1.82.49 2.83.49.76 0 1.39-.06 1.91-.18.51-.12.94-.26 1.29-.43.34-.17.61-.36.8-.55.2-.2.37-.38.51-.54h.19l.57 1.38h1.95v-10.59h-6.65v3.29h2.33v1.35c0 .18-.01.42-.04.72s-.11.59-.24.87c-.14.28-.36.52-.67.72-.32.2-.75.29-1.31.29-.54 0-.98-.09-1.31-.28-.33-.19-.59-.47-.79-.84-.2-.37-.33-.81-.41-1.33-.07-.51-.11-1.1-.11-1.74v-6.24c.01-.31.03-.63.06-.99z" fill="currentColor"></path>
        <path fill="currentColor" d="M299.44 117.46h6.13v-3.63h-6.19v-4.21h9V106h-13.32v19.83H309v-3.67h-9.56v-4.7z"></path>
        <path d="M182.26 120.58c-.07.44-.2.82-.38 1.13-.18.32-.42.56-.72.73-.3.17-.67.25-1.12.25-.6 0-1.06-.1-1.39-.33a1.96 1.96 0 0 1-.71-.84c-.14-.33-.23-.68-.26-1.04s-.04-.68-.04-.95v-7.55c0-.13 0-.29.01-.48s.04-.38.08-.57c.05-.19.12-.39.22-.59.1-.2.24-.38.42-.54.21-.2.47-.35.78-.46.31-.11.59-.16.87-.16.54 0 .96.12 1.25.35.3.24.52.52.66.85.14.34.23.68.27 1.04.04.36.05.66.05.89h4.35c-.02-.4-.05-.84-.09-1.33-.04-.49-.14-.97-.29-1.46a7.03 7.03 0 0 0-.6-1.42c-.26-.45-.62-.86-1.07-1.22-.34-.27-.71-.49-1.1-.66-.38-.17-.77-.31-1.15-.41-.38-.1-.75-.17-1.12-.2-.37-.03-.7-.05-.98-.05-2.32 0-4.08.61-5.27 1.84-1.19 1.22-1.78 2.98-1.78 5.27v5.96c0 1.01.06 1.85.17 2.53.12.67.27 1.24.44 1.68.18.45.38.81.61 1.07.23.26.44.49.64.69.63.61 1.35 1.06 2.17 1.34.82.28 1.8.42 2.96.42.22 0 .5-.01.83-.04.34-.03.72-.09 1.12-.19.41-.1.81-.23 1.21-.4.41-.17.79-.4 1.15-.68.41-.32.75-.66 1-1 .25-.34.44-.66.59-.97.14-.3.25-.58.32-.86.07-.27.13-.5.16-.7.04-.22.06-.4.08-.54.02-.14.04-.3.05-.46.02-.16.03-.35.04-.57.01-.22.01-.51.01-.87h-4.38c.04.56.01 1.05-.06 1.5z" fill="currentColor"></path>
        <path d="M214.69 116.48c-.16.6-.33 1.19-.49 1.78-.16.59-.31 1.19-.45 1.78h-.11c-.09-.31-.21-.74-.37-1.31-.15-.57-.35-1.25-.58-2.06L209.61 106h-4.35l6.05 19.83h4.72l5.92-19.83h-4.32l-2.94 10.48z" fill="currentColor"></path>
        <path fill="currentColor" d="m317.34 108.09-.77-2.09h-1.37v3.6h.95v-2.36h.01l.8 2.36h.77l.79-2.36h.02v2.36h.94V106h-1.36l-.78 2.09z"></path>
        <path fill="currentColor" d="M311.38 106.79h.97v2.81h1.05v-2.81h.98V106h-3v.79z"></path>
    </g>
</svg>
